<svg xmlns="http://www.w3.org/2000/svg" width="286" height="58" fill="none"><g clip-path="url(#a)" style="display:inline" transform="translate(1.976 -1.479) scale(.94206)"><g clip-path="url(#b)"><mask id="c" width="65" height="59" x="0" y="3" maskUnits="userSpaceOnUse"><path fill="#fff" d="M64.641 3.591H0v57.46h64.641V3.59Z"/></mask><g mask="url(#c)"><path fill="#140ea8" d="M26.353 6.904c1.758-3.07 5.654-4.123 8.7-2.35 3.046 1.773 4.09 5.7 2.33 8.77L11.91 57.804c-1.758 3.07-5.653 4.122-8.7 2.349-3.045-1.773-4.09-5.7-2.33-8.77z"/><path fill="#a1a6f3" fill-rule="evenodd" d="M49.259 25.728a6.62 6.62 0 0 0-5.778-3.344 6.62 6.62 0 0 0-5.774 3.344L23.25 50.97c-1.831 3.198-.744 7.287 2.428 9.134 3.172 1.846 7.229.75 9.06-2.448a6.25 6.25 0 0 1 5.42-3.154h6.649a6.25 6.25 0 0 1 5.42 3.154c1.832 3.198 5.888 4.294 9.06 2.448 3.173-1.847 4.26-5.936 2.428-9.134L49.26 25.728Z" clip-rule="evenodd"/><path fill="#5a66e9" d="M37.73 25.688c1.831-3.198 5.888-4.293 9.06-2.447 3.172 1.846 4.26 5.936 2.428 9.134l-14.48 25.281c-1.831 3.198-5.888 4.294-9.06 2.448-3.172-1.847-4.26-5.936-2.428-9.134z"/></g></g></g><g fill="#1c1e25" transform="translate(1.976 -1.479) scale(.94206)"><path d="M294.513 55.045a4.626 4.626 0 0 1-4.626-4.625V29.16a4.625 4.625 0 1 1 9.251 0v21.26a4.625 4.625 0 0 1-4.625 4.625zm-16.974 0a4.453 4.453 0 0 1-4.453-4.453V36.314c0-1.57-.441-2.72-1.322-3.448-.842-.766-2.03-1.149-3.562-1.149-1.494 0-2.835.287-4.022.862-.11.051-.219.106-.328.163-1.892 1.004-4.308 1.275-5.846-.215-1.475-1.429-1.523-3.82.15-5.01a20.693 20.693 0 0 1 3.496-2.005c2.375-1.073 4.96-1.61 7.757-1.61 2.566 0 4.788.384 6.665 1.15 1.877.766 3.332 1.934 4.367 3.505 1.034 1.57 1.551 3.562 1.551 5.976v16.06a4.453 4.453 0 0 1-4.453 4.452zm-12.382.575c-1.916 0-3.659-.383-5.229-1.15-1.532-.765-2.758-1.819-3.678-3.16-.881-1.378-1.321-2.987-1.321-4.826 0-1.57.287-2.95.862-4.137a7.45 7.45 0 0 1 2.528-2.93c1.149-.805 2.566-1.399 4.252-1.782 1.724-.421 3.716-.632 5.976-.632h6.079a2.902 2.902 0 0 1 0 5.804h-5.85c-.804 0-1.513.076-2.125.23-.613.114-1.131.325-1.552.632a2.979 2.979 0 0 0-.977.976c-.191.383-.287.843-.287 1.38 0 .574.153 1.072.46 1.493.306.422.708.747 1.206.977.537.23 1.149.345 1.839.345.996 0 1.934-.153 2.815-.46a7.621 7.621 0 0 0 2.414-1.436c.822-.693 2.332-.561 2.722.441l.313.806a1.55 1.55 0 0 1-.152 1.45 14.852 14.852 0 0 1-2.481 2.761 13.378 13.378 0 0 1-3.677 2.356 10.14 10.14 0 0 1-4.137.862zm-45.479 0c-3.142 0-5.957-.67-8.447-2.011-2.49-1.38-4.443-3.256-5.861-5.631-1.417-2.413-2.126-5.133-2.126-8.16 0-3.102.709-5.84 2.126-8.216 1.418-2.413 3.371-4.29 5.861-5.63 2.49-1.38 5.305-2.07 8.447-2.07 3.179 0 5.994.69 8.446 2.07 2.49 1.34 4.444 3.217 5.861 5.63 1.417 2.375 2.126 5.114 2.126 8.217 0 3.026-.709 5.746-2.126 8.159-1.417 2.375-3.371 4.252-5.861 5.631-2.452 1.34-5.267 2.011-8.446 2.011zm0-7.93c1.379 0 2.585-.344 3.619-1.034 1.073-.69 1.916-1.628 2.529-2.815.613-1.188.9-2.528.862-4.022.038-1.57-.249-2.95-.862-4.137-.613-1.226-1.456-2.165-2.529-2.816-1.034-.69-2.24-1.034-3.619-1.034-1.341 0-2.548.345-3.62 1.034-1.073.69-1.916 1.628-2.529 2.816-.612 1.187-.919 2.566-.919 4.137 0 1.494.307 2.834.919 4.022.613 1.187 1.456 2.126 2.529 2.815 1.072.69 2.279 1.035 3.62 1.035zm-32.471 7.93c-2.912 0-5.516-.46-7.815-1.379a16.398 16.398 0 0 1-2.651-1.388c-1.777-1.16-1.569-3.63.042-5.011 1.537-1.317 3.802-1.145 5.597-.21.372.194.756.367 1.149.518 1.494.537 2.912.805 4.252.805a4.61 4.61 0 0 0 1.322-.173 3.31 3.31 0 0 0 .977-.46c.306-.23.536-.478.689-.746.153-.307.23-.651.23-1.035 0-.766-.326-1.34-.977-1.723-.306-.192-.862-.422-1.666-.69-.805-.306-1.839-.613-3.103-.92-1.8-.459-3.371-1.014-4.712-1.665-1.302-.652-2.375-1.399-3.217-2.241a8.246 8.246 0 0 1-1.781-2.643c-.384-.996-.575-2.107-.575-3.333 0-1.877.555-3.524 1.666-4.942 1.149-1.417 2.643-2.509 4.482-3.275 1.839-.804 3.831-1.206 5.976-1.206 1.685 0 3.275.191 4.769.574 1.532.383 2.949.92 4.252 1.61.245.125.485.256.72.39 1.698.977 1.795 3.25.489 4.71l-.609.68c-1.044 1.167-2.858 1.195-4.22.425a13.831 13.831 0 0 0-2.643-1.264c-.881-.345-1.705-.517-2.471-.517-.575 0-1.092.057-1.551.172-.422.076-.786.23-1.092.46a2 2 0 0 0-.632.747 1.82 1.82 0 0 0-.23.919c0 .421.096.804.287 1.149.23.306.537.594.92.862.344.191.938.44 1.781.747.881.306 2.03.651 3.447 1.034 1.801.498 3.333 1.073 4.597 1.724 1.303.613 2.337 1.34 3.103 2.183a5.445 5.445 0 0 1 1.379 2.299c.306.842.46 1.762.46 2.758 0 1.953-.556 3.696-1.667 5.229-1.072 1.493-2.566 2.68-4.481 3.562-1.877.843-4.042 1.264-6.493 1.264zm-44.918-.575a1.896 1.896 0 0 1-1.896-1.896V29.052a4.517 4.517 0 0 1 4.517-4.517h.792a3.68 3.68 0 0 1 3.675 3.476l.121 2.185a.735.735 0 0 1-.482.73c-.569.208-1.109-.32-.838-.862a9.576 9.576 0 0 1 1.695-2.369c1.111-1.15 2.433-2.069 3.965-2.758a11.63 11.63 0 0 1 4.827-1.034c2.298 0 4.232.479 5.803 1.436 1.571.92 2.739 2.318 3.505 4.195.804 1.838 1.207 4.118 1.207 6.837V50.42a4.626 4.626 0 0 1-9.251 0V37.06c0-1.225-.173-2.24-.517-3.044-.345-.805-.862-1.399-1.552-1.782-.689-.383-1.551-.555-2.585-.517-.805 0-1.552.134-2.241.402a4.99 4.99 0 0 0-1.839 1.092c-.498.46-.881.996-1.149 1.609s-.402 1.302-.402 2.068v13.503a4.654 4.654 0 0 1-4.655 4.654zm-21.083.575c-3.371 0-6.32-.67-8.848-2.011-2.49-1.34-4.425-3.18-5.804-5.516-1.34-2.375-2.011-5.076-2.011-8.102 0-2.375.383-4.54 1.149-6.493.767-1.992 1.839-3.696 3.218-5.113a14.853 14.853 0 0 1 4.942-3.276c1.915-.804 4.003-1.206 6.263-1.206 2.145 0 4.098.383 5.86 1.149a13.837 13.837 0 0 1 4.597 3.218c1.303 1.379 2.298 3.007 2.988 4.884.69 1.877 1.015 3.926.977 6.148a2.587 2.587 0 0 1-2.586 2.528h-19.705a2.615 2.615 0 0 1 0-5.229h14.024a.294.294 0 1 1-.295.294v-.409c-.076-.957-.383-1.781-.919-2.47-.498-.728-1.168-1.303-2.011-1.724-.804-.422-1.724-.632-2.758-.632-1.532 0-2.835.306-3.907.919-1.034.575-1.82 1.417-2.356 2.528-.536 1.111-.804 2.49-.804 4.137 0 1.647.344 3.103 1.034 4.367.728 1.264 1.762 2.241 3.103 2.93 1.379.69 3.007 1.035 4.884 1.035 1.264 0 2.413-.192 3.447-.575 1.983-.734 4.351-.514 5.572 1.212l.05.07c1.142 1.614.872 3.872-.834 4.869-.308.18-.621.351-.938.514a18.3 18.3 0 0 1-4.137 1.437 17.233 17.233 0 0 1-4.195.517zm-26.801-.575a4.625 4.625 0 0 1-4.626-4.625V17.15a4.625 4.625 0 0 1 9.251 0v33.27a4.625 4.625 0 0 1-4.625 4.625z"/><circle cx="294.5" cy="13.5" r="4.5"/><circle cx="245.5" cy="50.5" r="4.5"/></g><defs><clipPath id="a"><path fill="#fff" d="M0 0h64.641v64.641H0Z"/></clipPath><clipPath id="b"><path fill="#fff" d="M0 0h64.641v57.459H0Z" transform="translate(0 3.591)"/></clipPath></defs></svg>